<mxfile host="Electron" agent="Mozilla/5.0 (Windows NT 10.0; Win64; x64) AppleWebKit/537.36 (KHTML, like Gecko) draw.io/24.7.17 Chrome/128.0.6613.36 Electron/32.0.1 Safari/537.36" version="24.7.17">
  <diagram name="第 1 页" id="GqaYeDAcBa39iaGWTPDn">
    <mxGraphModel dx="1133" dy="1197" grid="1" gridSize="10" guides="1" tooltips="1" connect="1" arrows="1" fold="1" page="1" pageScale="1" pageWidth="827" pageHeight="1169" math="0" shadow="0">
      <root>
        <mxCell id="0" />
        <mxCell id="1" parent="0" />
        <mxCell id="_3a8YiENMzKRKPIrLzeu-1" value="" style="rounded=0;whiteSpace=wrap;html=1;" parent="1" vertex="1">
          <mxGeometry x="360" y="440" width="520" height="1200" as="geometry" />
        </mxCell>
        <mxCell id="_3a8YiENMzKRKPIrLzeu-9" value="" style="endArrow=classic;html=1;rounded=0;" parent="1" edge="1">
          <mxGeometry width="50" height="50" relative="1" as="geometry">
            <mxPoint x="280" y="480" as="sourcePoint" />
            <mxPoint x="360" y="480" as="targetPoint" />
          </mxGeometry>
        </mxCell>
        <mxCell id="_3a8YiENMzKRKPIrLzeu-17" value="&lt;span style=&quot;font-size: 18px;&quot;&gt;i_instr&lt;/span&gt;" style="text;html=1;align=left;verticalAlign=middle;whiteSpace=wrap;rounded=0;" parent="1" vertex="1">
          <mxGeometry x="360" y="460" width="200" height="40" as="geometry" />
        </mxCell>
        <mxCell id="_3a8YiENMzKRKPIrLzeu-26" value="" style="endArrow=classic;html=1;rounded=0;" parent="1" edge="1">
          <mxGeometry width="50" height="50" relative="1" as="geometry">
            <mxPoint x="880" y="479.5" as="sourcePoint" />
            <mxPoint x="960" y="479.5" as="targetPoint" />
          </mxGeometry>
        </mxCell>
        <mxCell id="_3a8YiENMzKRKPIrLzeu-27" value="" style="endArrow=classic;html=1;rounded=0;" parent="1" edge="1">
          <mxGeometry width="50" height="50" relative="1" as="geometry">
            <mxPoint x="280" y="520" as="sourcePoint" />
            <mxPoint x="360" y="520" as="targetPoint" />
          </mxGeometry>
        </mxCell>
        <mxCell id="_3a8YiENMzKRKPIrLzeu-31" value="" style="endArrow=classic;html=1;rounded=0;" parent="1" edge="1">
          <mxGeometry width="50" height="50" relative="1" as="geometry">
            <mxPoint x="280" y="560" as="sourcePoint" />
            <mxPoint x="360" y="560" as="targetPoint" />
          </mxGeometry>
        </mxCell>
        <mxCell id="_3a8YiENMzKRKPIrLzeu-35" value="" style="endArrow=classic;html=1;rounded=0;" parent="1" edge="1">
          <mxGeometry width="50" height="50" relative="1" as="geometry">
            <mxPoint x="280" y="600" as="sourcePoint" />
            <mxPoint x="360" y="600" as="targetPoint" />
          </mxGeometry>
        </mxCell>
        <mxCell id="_3a8YiENMzKRKPIrLzeu-39" value="" style="endArrow=classic;html=1;rounded=0;" parent="1" edge="1">
          <mxGeometry width="50" height="50" relative="1" as="geometry">
            <mxPoint x="280" y="640" as="sourcePoint" />
            <mxPoint x="360" y="640" as="targetPoint" />
          </mxGeometry>
        </mxCell>
        <mxCell id="_3a8YiENMzKRKPIrLzeu-43" value="" style="endArrow=classic;html=1;rounded=0;" parent="1" edge="1">
          <mxGeometry width="50" height="50" relative="1" as="geometry">
            <mxPoint x="280" y="680" as="sourcePoint" />
            <mxPoint x="360" y="680" as="targetPoint" />
          </mxGeometry>
        </mxCell>
        <mxCell id="_3a8YiENMzKRKPIrLzeu-47" value="" style="endArrow=classic;html=1;rounded=0;" parent="1" edge="1">
          <mxGeometry width="50" height="50" relative="1" as="geometry">
            <mxPoint x="280" y="720" as="sourcePoint" />
            <mxPoint x="360" y="720" as="targetPoint" />
          </mxGeometry>
        </mxCell>
        <mxCell id="_3a8YiENMzKRKPIrLzeu-51" value="" style="endArrow=classic;html=1;rounded=0;" parent="1" edge="1">
          <mxGeometry width="50" height="50" relative="1" as="geometry">
            <mxPoint x="280" y="760" as="sourcePoint" />
            <mxPoint x="360" y="760" as="targetPoint" />
          </mxGeometry>
        </mxCell>
        <mxCell id="_3a8YiENMzKRKPIrLzeu-87" value="&lt;span style=&quot;font-size: 18px;&quot;&gt;e203_exu_decode&lt;/span&gt;" style="text;html=1;align=center;verticalAlign=middle;whiteSpace=wrap;rounded=0;" parent="1" vertex="1">
          <mxGeometry x="590" y="440" width="60" height="30" as="geometry" />
        </mxCell>
        <mxCell id="wlH1zYc57PTHNDlGmOBV-1" value="" style="endArrow=classic;html=1;rounded=0;" parent="1" edge="1">
          <mxGeometry width="50" height="50" relative="1" as="geometry">
            <mxPoint x="880" y="519.5" as="sourcePoint" />
            <mxPoint x="960" y="519.5" as="targetPoint" />
          </mxGeometry>
        </mxCell>
        <mxCell id="wlH1zYc57PTHNDlGmOBV-2" value="" style="endArrow=classic;html=1;rounded=0;" parent="1" edge="1">
          <mxGeometry width="50" height="50" relative="1" as="geometry">
            <mxPoint x="880" y="559.5" as="sourcePoint" />
            <mxPoint x="960" y="559.5" as="targetPoint" />
          </mxGeometry>
        </mxCell>
        <mxCell id="wlH1zYc57PTHNDlGmOBV-3" value="" style="endArrow=classic;html=1;rounded=0;" parent="1" edge="1">
          <mxGeometry width="50" height="50" relative="1" as="geometry">
            <mxPoint x="880" y="599.5" as="sourcePoint" />
            <mxPoint x="960" y="599.5" as="targetPoint" />
          </mxGeometry>
        </mxCell>
        <mxCell id="wlH1zYc57PTHNDlGmOBV-4" value="" style="endArrow=classic;html=1;rounded=0;" parent="1" edge="1">
          <mxGeometry width="50" height="50" relative="1" as="geometry">
            <mxPoint x="880" y="640" as="sourcePoint" />
            <mxPoint x="960" y="640" as="targetPoint" />
          </mxGeometry>
        </mxCell>
        <mxCell id="wlH1zYc57PTHNDlGmOBV-5" value="" style="endArrow=classic;html=1;rounded=0;" parent="1" edge="1">
          <mxGeometry width="50" height="50" relative="1" as="geometry">
            <mxPoint x="880" y="680" as="sourcePoint" />
            <mxPoint x="960" y="680" as="targetPoint" />
          </mxGeometry>
        </mxCell>
        <mxCell id="wlH1zYc57PTHNDlGmOBV-6" value="" style="endArrow=classic;html=1;rounded=0;" parent="1" edge="1">
          <mxGeometry width="50" height="50" relative="1" as="geometry">
            <mxPoint x="880" y="720" as="sourcePoint" />
            <mxPoint x="960" y="720" as="targetPoint" />
          </mxGeometry>
        </mxCell>
        <mxCell id="wlH1zYc57PTHNDlGmOBV-7" value="" style="endArrow=classic;html=1;rounded=0;" parent="1" edge="1">
          <mxGeometry width="50" height="50" relative="1" as="geometry">
            <mxPoint x="880" y="760" as="sourcePoint" />
            <mxPoint x="960" y="760" as="targetPoint" />
          </mxGeometry>
        </mxCell>
        <mxCell id="wlH1zYc57PTHNDlGmOBV-8" value="" style="endArrow=classic;html=1;rounded=0;" parent="1" edge="1">
          <mxGeometry width="50" height="50" relative="1" as="geometry">
            <mxPoint x="880" y="800" as="sourcePoint" />
            <mxPoint x="960" y="800" as="targetPoint" />
          </mxGeometry>
        </mxCell>
        <mxCell id="wlH1zYc57PTHNDlGmOBV-9" value="" style="endArrow=classic;html=1;rounded=0;" parent="1" edge="1">
          <mxGeometry width="50" height="50" relative="1" as="geometry">
            <mxPoint x="880" y="840" as="sourcePoint" />
            <mxPoint x="960" y="840" as="targetPoint" />
          </mxGeometry>
        </mxCell>
        <mxCell id="wlH1zYc57PTHNDlGmOBV-10" value="" style="endArrow=classic;html=1;rounded=0;" parent="1" edge="1">
          <mxGeometry width="50" height="50" relative="1" as="geometry">
            <mxPoint x="880" y="880" as="sourcePoint" />
            <mxPoint x="960" y="880" as="targetPoint" />
          </mxGeometry>
        </mxCell>
        <mxCell id="wlH1zYc57PTHNDlGmOBV-11" value="" style="endArrow=classic;html=1;rounded=0;" parent="1" edge="1">
          <mxGeometry width="50" height="50" relative="1" as="geometry">
            <mxPoint x="880" y="920" as="sourcePoint" />
            <mxPoint x="960" y="920" as="targetPoint" />
          </mxGeometry>
        </mxCell>
        <mxCell id="unABgJLcHEa5XkPhuNoP-1" value="&lt;span style=&quot;font-size: 18px;&quot;&gt;dec_rs1x0&lt;/span&gt;" style="text;html=1;align=right;verticalAlign=middle;whiteSpace=wrap;rounded=0;" parent="1" vertex="1">
          <mxGeometry x="680" y="460" width="200" height="40" as="geometry" />
        </mxCell>
        <mxCell id="unABgJLcHEa5XkPhuNoP-2" value="&lt;span style=&quot;font-size: 18px;&quot;&gt;i_pc&lt;/span&gt;" style="text;html=1;align=left;verticalAlign=middle;whiteSpace=wrap;rounded=0;" parent="1" vertex="1">
          <mxGeometry x="360" y="500" width="200" height="40" as="geometry" />
        </mxCell>
        <mxCell id="unABgJLcHEa5XkPhuNoP-3" value="&lt;span style=&quot;font-size: 18px;&quot;&gt;dec_rs2x0&lt;/span&gt;" style="text;html=1;align=right;verticalAlign=middle;whiteSpace=wrap;rounded=0;" parent="1" vertex="1">
          <mxGeometry x="680" y="500" width="200" height="40" as="geometry" />
        </mxCell>
        <mxCell id="unABgJLcHEa5XkPhuNoP-4" value="&lt;span style=&quot;font-size: 18px;&quot;&gt;i_prdt_taken&lt;/span&gt;" style="text;html=1;align=left;verticalAlign=middle;whiteSpace=wrap;rounded=0;" parent="1" vertex="1">
          <mxGeometry x="360" y="540" width="200" height="40" as="geometry" />
        </mxCell>
        <mxCell id="unABgJLcHEa5XkPhuNoP-5" value="&lt;span style=&quot;font-size: 18px;&quot;&gt;dec_rs1en&lt;/span&gt;" style="text;html=1;align=right;verticalAlign=middle;whiteSpace=wrap;rounded=0;" parent="1" vertex="1">
          <mxGeometry x="680" y="540" width="200" height="40" as="geometry" />
        </mxCell>
        <mxCell id="unABgJLcHEa5XkPhuNoP-6" value="&lt;span style=&quot;font-size: 18px;&quot;&gt;i_misalgn&lt;/span&gt;" style="text;html=1;align=left;verticalAlign=middle;whiteSpace=wrap;rounded=0;" parent="1" vertex="1">
          <mxGeometry x="360" y="580" width="200" height="40" as="geometry" />
        </mxCell>
        <mxCell id="unABgJLcHEa5XkPhuNoP-7" value="&lt;span style=&quot;font-size: 18px;&quot;&gt;dec_rs2en&lt;/span&gt;" style="text;html=1;align=right;verticalAlign=middle;whiteSpace=wrap;rounded=0;" parent="1" vertex="1">
          <mxGeometry x="680" y="580" width="200" height="40" as="geometry" />
        </mxCell>
        <mxCell id="unABgJLcHEa5XkPhuNoP-24" value="&lt;span style=&quot;font-size: 18px;&quot;&gt;i_buserr&lt;/span&gt;" style="text;html=1;align=left;verticalAlign=middle;whiteSpace=wrap;rounded=0;" parent="1" vertex="1">
          <mxGeometry x="360" y="620" width="200" height="40" as="geometry" />
        </mxCell>
        <mxCell id="unABgJLcHEa5XkPhuNoP-25" value="&lt;span style=&quot;font-size: 18px;&quot;&gt;dec_rdwen&lt;/span&gt;" style="text;html=1;align=right;verticalAlign=middle;whiteSpace=wrap;rounded=0;" parent="1" vertex="1">
          <mxGeometry x="680" y="620" width="200" height="40" as="geometry" />
        </mxCell>
        <mxCell id="unABgJLcHEa5XkPhuNoP-26" value="&lt;span style=&quot;font-size: 18px;&quot;&gt;i_muldiv_b2b&lt;/span&gt;" style="text;html=1;align=left;verticalAlign=middle;whiteSpace=wrap;rounded=0;" parent="1" vertex="1">
          <mxGeometry x="360" y="660" width="200" height="40" as="geometry" />
        </mxCell>
        <mxCell id="unABgJLcHEa5XkPhuNoP-27" value="&lt;span style=&quot;font-size: 18px;&quot;&gt;dec_rs1idx&lt;/span&gt;" style="text;html=1;align=right;verticalAlign=middle;whiteSpace=wrap;rounded=0;" parent="1" vertex="1">
          <mxGeometry x="680" y="660" width="200" height="40" as="geometry" />
        </mxCell>
        <mxCell id="unABgJLcHEa5XkPhuNoP-28" value="&lt;span style=&quot;font-size: 18px;&quot;&gt;dbg_mode&lt;/span&gt;" style="text;html=1;align=left;verticalAlign=middle;whiteSpace=wrap;rounded=0;" parent="1" vertex="1">
          <mxGeometry x="360" y="700" width="200" height="40" as="geometry" />
        </mxCell>
        <mxCell id="unABgJLcHEa5XkPhuNoP-29" value="&lt;span style=&quot;font-size: 18px;&quot;&gt;dec_rs2idx&lt;/span&gt;" style="text;html=1;align=right;verticalAlign=middle;whiteSpace=wrap;rounded=0;" parent="1" vertex="1">
          <mxGeometry x="680" y="700" width="200" height="40" as="geometry" />
        </mxCell>
        <mxCell id="unABgJLcHEa5XkPhuNoP-30" value="&lt;span style=&quot;font-size: 18px;&quot;&gt;nice_xs_off*&lt;/span&gt;" style="text;html=1;align=left;verticalAlign=middle;whiteSpace=wrap;rounded=0;" parent="1" vertex="1">
          <mxGeometry x="360" y="740" width="200" height="40" as="geometry" />
        </mxCell>
        <mxCell id="unABgJLcHEa5XkPhuNoP-31" value="&lt;span style=&quot;font-size: 18px;&quot;&gt;dec_rdidx&lt;/span&gt;" style="text;html=1;align=right;verticalAlign=middle;whiteSpace=wrap;rounded=0;" parent="1" vertex="1">
          <mxGeometry x="680" y="740" width="200" height="40" as="geometry" />
        </mxCell>
        <mxCell id="unABgJLcHEa5XkPhuNoP-33" value="&lt;span style=&quot;font-size: 18px;&quot;&gt;dec_info&lt;/span&gt;" style="text;html=1;align=right;verticalAlign=middle;whiteSpace=wrap;rounded=0;" parent="1" vertex="1">
          <mxGeometry x="680" y="780" width="200" height="40" as="geometry" />
        </mxCell>
        <mxCell id="unABgJLcHEa5XkPhuNoP-35" value="&lt;span style=&quot;font-size: 18px;&quot;&gt;dec_imm&lt;/span&gt;" style="text;html=1;align=right;verticalAlign=middle;whiteSpace=wrap;rounded=0;" parent="1" vertex="1">
          <mxGeometry x="680" y="820" width="200" height="40" as="geometry" />
        </mxCell>
        <mxCell id="unABgJLcHEa5XkPhuNoP-37" value="&lt;span style=&quot;font-size: 18px;&quot;&gt;dec_pc&lt;/span&gt;" style="text;html=1;align=right;verticalAlign=middle;whiteSpace=wrap;rounded=0;" parent="1" vertex="1">
          <mxGeometry x="680" y="860" width="200" height="40" as="geometry" />
        </mxCell>
        <mxCell id="unABgJLcHEa5XkPhuNoP-39" value="&lt;span style=&quot;font-size: 18px;&quot;&gt;dec_misalgn&lt;/span&gt;" style="text;html=1;align=right;verticalAlign=middle;whiteSpace=wrap;rounded=0;" parent="1" vertex="1">
          <mxGeometry x="680" y="900" width="200" height="40" as="geometry" />
        </mxCell>
        <mxCell id="unABgJLcHEa5XkPhuNoP-41" value="&lt;span style=&quot;font-size: 18px;&quot;&gt;dec_buserr&lt;/span&gt;" style="text;html=1;align=right;verticalAlign=middle;whiteSpace=wrap;rounded=0;" parent="1" vertex="1">
          <mxGeometry x="680" y="940" width="200" height="40" as="geometry" />
        </mxCell>
        <mxCell id="unABgJLcHEa5XkPhuNoP-43" value="&lt;span style=&quot;font-size: 18px;&quot;&gt;dec_ilegl&lt;/span&gt;" style="text;html=1;align=right;verticalAlign=middle;whiteSpace=wrap;rounded=0;" parent="1" vertex="1">
          <mxGeometry x="680" y="980" width="200" height="40" as="geometry" />
        </mxCell>
        <mxCell id="unABgJLcHEa5XkPhuNoP-45" value="&lt;span style=&quot;font-size: 18px;&quot;&gt;dec_nice*&lt;/span&gt;" style="text;html=1;align=right;verticalAlign=middle;whiteSpace=wrap;rounded=0;" parent="1" vertex="1">
          <mxGeometry x="680" y="1020" width="200" height="40" as="geometry" />
        </mxCell>
        <mxCell id="unABgJLcHEa5XkPhuNoP-47" value="&lt;span style=&quot;font-size: 18px;&quot;&gt;nice_cmt_off_ilgl_o&lt;/span&gt;" style="text;html=1;align=right;verticalAlign=middle;whiteSpace=wrap;rounded=0;" parent="1" vertex="1">
          <mxGeometry x="680" y="1060" width="200" height="40" as="geometry" />
        </mxCell>
        <mxCell id="unABgJLcHEa5XkPhuNoP-49" value="&lt;span style=&quot;font-size: 18px;&quot;&gt;dec_mulhsu&lt;/span&gt;" style="text;html=1;align=right;verticalAlign=middle;whiteSpace=wrap;rounded=0;" parent="1" vertex="1">
          <mxGeometry x="680" y="1100" width="200" height="40" as="geometry" />
        </mxCell>
        <mxCell id="unABgJLcHEa5XkPhuNoP-50" value="" style="endArrow=classic;html=1;rounded=0;" parent="1" edge="1">
          <mxGeometry width="50" height="50" relative="1" as="geometry">
            <mxPoint x="880" y="960" as="sourcePoint" />
            <mxPoint x="960" y="960" as="targetPoint" />
          </mxGeometry>
        </mxCell>
        <mxCell id="unABgJLcHEa5XkPhuNoP-51" value="" style="endArrow=classic;html=1;rounded=0;" parent="1" edge="1">
          <mxGeometry width="50" height="50" relative="1" as="geometry">
            <mxPoint x="880" y="1000" as="sourcePoint" />
            <mxPoint x="960" y="1000" as="targetPoint" />
          </mxGeometry>
        </mxCell>
        <mxCell id="unABgJLcHEa5XkPhuNoP-52" value="" style="endArrow=classic;html=1;rounded=0;" parent="1" edge="1">
          <mxGeometry width="50" height="50" relative="1" as="geometry">
            <mxPoint x="880" y="1040" as="sourcePoint" />
            <mxPoint x="960" y="1040" as="targetPoint" />
          </mxGeometry>
        </mxCell>
        <mxCell id="unABgJLcHEa5XkPhuNoP-53" value="" style="endArrow=classic;html=1;rounded=0;" parent="1" edge="1">
          <mxGeometry width="50" height="50" relative="1" as="geometry">
            <mxPoint x="880" y="1080" as="sourcePoint" />
            <mxPoint x="960" y="1080" as="targetPoint" />
          </mxGeometry>
        </mxCell>
        <mxCell id="unABgJLcHEa5XkPhuNoP-54" value="" style="endArrow=classic;html=1;rounded=0;" parent="1" edge="1">
          <mxGeometry width="50" height="50" relative="1" as="geometry">
            <mxPoint x="880" y="1119.5" as="sourcePoint" />
            <mxPoint x="960" y="1119.5" as="targetPoint" />
          </mxGeometry>
        </mxCell>
        <mxCell id="PNwz3OEVd_4txC1Bngzp-3" value="&lt;span style=&quot;font-size: 18px;&quot;&gt;dec_mul&lt;/span&gt;" style="text;html=1;align=right;verticalAlign=middle;whiteSpace=wrap;rounded=0;" vertex="1" parent="1">
          <mxGeometry x="680" y="1140" width="200" height="40" as="geometry" />
        </mxCell>
        <mxCell id="PNwz3OEVd_4txC1Bngzp-4" value="" style="endArrow=classic;html=1;rounded=0;" edge="1" parent="1">
          <mxGeometry width="50" height="50" relative="1" as="geometry">
            <mxPoint x="880" y="1159.5" as="sourcePoint" />
            <mxPoint x="960" y="1159.5" as="targetPoint" />
          </mxGeometry>
        </mxCell>
        <mxCell id="PNwz3OEVd_4txC1Bngzp-7" value="&lt;span style=&quot;font-size: 18px;&quot;&gt;dec_div&lt;/span&gt;" style="text;html=1;align=right;verticalAlign=middle;whiteSpace=wrap;rounded=0;" vertex="1" parent="1">
          <mxGeometry x="680" y="1180" width="200" height="40" as="geometry" />
        </mxCell>
        <mxCell id="PNwz3OEVd_4txC1Bngzp-8" value="" style="endArrow=classic;html=1;rounded=0;" edge="1" parent="1">
          <mxGeometry width="50" height="50" relative="1" as="geometry">
            <mxPoint x="880" y="1199.5" as="sourcePoint" />
            <mxPoint x="960" y="1199.5" as="targetPoint" />
          </mxGeometry>
        </mxCell>
        <mxCell id="PNwz3OEVd_4txC1Bngzp-11" value="&lt;span style=&quot;font-size: 18px;&quot;&gt;dec_rem&lt;/span&gt;" style="text;html=1;align=right;verticalAlign=middle;whiteSpace=wrap;rounded=0;" vertex="1" parent="1">
          <mxGeometry x="680" y="1220" width="200" height="40" as="geometry" />
        </mxCell>
        <mxCell id="PNwz3OEVd_4txC1Bngzp-12" value="" style="endArrow=classic;html=1;rounded=0;" edge="1" parent="1">
          <mxGeometry width="50" height="50" relative="1" as="geometry">
            <mxPoint x="880" y="1239.5" as="sourcePoint" />
            <mxPoint x="960" y="1239.5" as="targetPoint" />
          </mxGeometry>
        </mxCell>
        <mxCell id="PNwz3OEVd_4txC1Bngzp-15" value="&lt;span style=&quot;font-size: 18px;&quot;&gt;dec_divu&lt;/span&gt;" style="text;html=1;align=right;verticalAlign=middle;whiteSpace=wrap;rounded=0;" vertex="1" parent="1">
          <mxGeometry x="680" y="1260" width="200" height="40" as="geometry" />
        </mxCell>
        <mxCell id="PNwz3OEVd_4txC1Bngzp-16" value="" style="endArrow=classic;html=1;rounded=0;" edge="1" parent="1">
          <mxGeometry width="50" height="50" relative="1" as="geometry">
            <mxPoint x="880" y="1279.5" as="sourcePoint" />
            <mxPoint x="960" y="1279.5" as="targetPoint" />
          </mxGeometry>
        </mxCell>
        <mxCell id="PNwz3OEVd_4txC1Bngzp-19" value="&lt;span style=&quot;font-size: 18px;&quot;&gt;dec_remu&lt;/span&gt;" style="text;html=1;align=right;verticalAlign=middle;whiteSpace=wrap;rounded=0;" vertex="1" parent="1">
          <mxGeometry x="680" y="1300" width="200" height="40" as="geometry" />
        </mxCell>
        <mxCell id="PNwz3OEVd_4txC1Bngzp-20" value="" style="endArrow=classic;html=1;rounded=0;" edge="1" parent="1">
          <mxGeometry width="50" height="50" relative="1" as="geometry">
            <mxPoint x="880" y="1319.5" as="sourcePoint" />
            <mxPoint x="960" y="1319.5" as="targetPoint" />
          </mxGeometry>
        </mxCell>
        <mxCell id="PNwz3OEVd_4txC1Bngzp-23" value="&lt;span style=&quot;font-size: 18px;&quot;&gt;dec_rv32&lt;/span&gt;" style="text;html=1;align=right;verticalAlign=middle;whiteSpace=wrap;rounded=0;" vertex="1" parent="1">
          <mxGeometry x="680" y="1340" width="200" height="40" as="geometry" />
        </mxCell>
        <mxCell id="PNwz3OEVd_4txC1Bngzp-24" value="" style="endArrow=classic;html=1;rounded=0;" edge="1" parent="1">
          <mxGeometry width="50" height="50" relative="1" as="geometry">
            <mxPoint x="880" y="1359.5" as="sourcePoint" />
            <mxPoint x="960" y="1359.5" as="targetPoint" />
          </mxGeometry>
        </mxCell>
        <mxCell id="PNwz3OEVd_4txC1Bngzp-27" value="&lt;span style=&quot;font-size: 18px;&quot;&gt;dec_bjp&lt;/span&gt;" style="text;html=1;align=right;verticalAlign=middle;whiteSpace=wrap;rounded=0;" vertex="1" parent="1">
          <mxGeometry x="680" y="1380" width="200" height="40" as="geometry" />
        </mxCell>
        <mxCell id="PNwz3OEVd_4txC1Bngzp-28" value="" style="endArrow=classic;html=1;rounded=0;" edge="1" parent="1">
          <mxGeometry width="50" height="50" relative="1" as="geometry">
            <mxPoint x="880" y="1399.5" as="sourcePoint" />
            <mxPoint x="960" y="1399.5" as="targetPoint" />
          </mxGeometry>
        </mxCell>
        <mxCell id="PNwz3OEVd_4txC1Bngzp-31" value="&lt;span style=&quot;font-size: 18px;&quot;&gt;dec_jal&lt;/span&gt;" style="text;html=1;align=right;verticalAlign=middle;whiteSpace=wrap;rounded=0;" vertex="1" parent="1">
          <mxGeometry x="680" y="1420" width="200" height="40" as="geometry" />
        </mxCell>
        <mxCell id="PNwz3OEVd_4txC1Bngzp-32" value="" style="endArrow=classic;html=1;rounded=0;" edge="1" parent="1">
          <mxGeometry width="50" height="50" relative="1" as="geometry">
            <mxPoint x="880" y="1439.5" as="sourcePoint" />
            <mxPoint x="960" y="1439.5" as="targetPoint" />
          </mxGeometry>
        </mxCell>
        <mxCell id="PNwz3OEVd_4txC1Bngzp-35" value="&lt;span style=&quot;font-size: 18px;&quot;&gt;dec_jalr&lt;/span&gt;" style="text;html=1;align=right;verticalAlign=middle;whiteSpace=wrap;rounded=0;" vertex="1" parent="1">
          <mxGeometry x="680" y="1460" width="200" height="40" as="geometry" />
        </mxCell>
        <mxCell id="PNwz3OEVd_4txC1Bngzp-36" value="" style="endArrow=classic;html=1;rounded=0;" edge="1" parent="1">
          <mxGeometry width="50" height="50" relative="1" as="geometry">
            <mxPoint x="880" y="1479.5" as="sourcePoint" />
            <mxPoint x="960" y="1479.5" as="targetPoint" />
          </mxGeometry>
        </mxCell>
        <mxCell id="PNwz3OEVd_4txC1Bngzp-39" value="&lt;span style=&quot;font-size: 18px;&quot;&gt;dec_bxx&lt;/span&gt;" style="text;html=1;align=right;verticalAlign=middle;whiteSpace=wrap;rounded=0;" vertex="1" parent="1">
          <mxGeometry x="680" y="1500" width="200" height="40" as="geometry" />
        </mxCell>
        <mxCell id="PNwz3OEVd_4txC1Bngzp-40" value="" style="endArrow=classic;html=1;rounded=0;" edge="1" parent="1">
          <mxGeometry width="50" height="50" relative="1" as="geometry">
            <mxPoint x="880" y="1519.5" as="sourcePoint" />
            <mxPoint x="960" y="1519.5" as="targetPoint" />
          </mxGeometry>
        </mxCell>
        <mxCell id="PNwz3OEVd_4txC1Bngzp-43" value="&lt;span style=&quot;font-size: 18px;&quot;&gt;dec_jalr_rs1idx&lt;/span&gt;" style="text;html=1;align=right;verticalAlign=middle;whiteSpace=wrap;rounded=0;" vertex="1" parent="1">
          <mxGeometry x="680" y="1540" width="200" height="40" as="geometry" />
        </mxCell>
        <mxCell id="PNwz3OEVd_4txC1Bngzp-44" value="" style="endArrow=classic;html=1;rounded=0;" edge="1" parent="1">
          <mxGeometry width="50" height="50" relative="1" as="geometry">
            <mxPoint x="880" y="1559.5" as="sourcePoint" />
            <mxPoint x="960" y="1559.5" as="targetPoint" />
          </mxGeometry>
        </mxCell>
        <mxCell id="PNwz3OEVd_4txC1Bngzp-47" value="&lt;span style=&quot;font-size: 18px;&quot;&gt;dec_bjp_imm&lt;/span&gt;" style="text;html=1;align=right;verticalAlign=middle;whiteSpace=wrap;rounded=0;" vertex="1" parent="1">
          <mxGeometry x="680" y="1580" width="200" height="40" as="geometry" />
        </mxCell>
        <mxCell id="PNwz3OEVd_4txC1Bngzp-48" value="" style="endArrow=classic;html=1;rounded=0;" edge="1" parent="1">
          <mxGeometry width="50" height="50" relative="1" as="geometry">
            <mxPoint x="880" y="1599.5" as="sourcePoint" />
            <mxPoint x="960" y="1599.5" as="targetPoint" />
          </mxGeometry>
        </mxCell>
      </root>
    </mxGraphModel>
  </diagram>
</mxfile>
